<svg id="svg" version="1.1" xmlns="http://www.w3.org/2000/svg" xmlns:xlink="http://www.w3.org/1999/xlink" width="400" height="400" viewBox="0, 0, 400,400"><g id="svgg"><path id="path0" d="M252.000 17.094 C 251.336 18.317,251.087 97.253,251.743 98.310 C 251.997 98.719,260.335 98.814,293.661 98.789 C 327.554 98.763,335.183 98.662,334.835 98.242 C 334.599 97.958,334.540 97.581,334.703 97.404 C 334.867 97.227,334.595 97.182,334.099 97.304 C 333.604 97.426,333.283 97.390,333.385 97.224 C 333.488 97.058,333.038 96.411,332.386 95.786 C 331.734 95.162,331.200 94.403,331.200 94.102 C 331.200 93.800,331.044 93.649,330.853 93.767 C 330.446 94.019,329.442 92.936,329.039 91.811 C 328.822 91.203,328.681 91.145,328.427 91.556 C 328.230 91.875,328.037 91.923,327.948 91.675 C 327.867 91.447,327.534 91.202,327.210 91.130 C 326.390 90.950,325.600 90.161,325.600 89.523 C 325.600 89.230,323.090 86.484,320.022 83.422 C 316.953 80.359,314.533 77.709,314.642 77.531 C 314.752 77.354,314.560 77.317,314.216 77.449 C 313.745 77.630,313.658 77.514,313.863 76.979 C 314.050 76.492,313.989 76.360,313.667 76.558 C 313.378 76.737,313.049 76.456,312.809 75.824 C 312.394 74.731,311.887 74.417,312.082 75.374 C 312.147 75.689,312.025 75.914,311.811 75.874 C 311.597 75.833,311.475 75.391,311.541 74.890 C 311.616 74.316,311.471 74.021,311.148 74.090 C 310.867 74.151,310.606 73.975,310.568 73.700 C 310.531 73.425,310.478 73.076,310.450 72.924 C 310.423 72.771,310.117 72.996,309.770 73.424 C 309.424 73.851,309.263 73.962,309.412 73.670 C 309.590 73.325,307.516 70.957,303.433 66.846 C 299.995 63.384,297.321 60.412,297.491 60.242 C 297.661 60.072,297.545 59.993,297.233 60.067 C 296.921 60.140,296.447 59.780,296.179 59.266 C 295.569 58.095,294.800 57.300,294.800 57.840 C 294.800 58.060,294.996 58.436,295.235 58.675 C 295.548 58.988,295.548 59.185,295.235 59.378 C 294.993 59.528,294.800 59.371,294.800 59.024 C 294.800 58.681,294.583 58.445,294.318 58.500 C 293.771 58.613,293.598 57.524,294.106 57.165 C 294.288 57.035,294.126 56.675,293.744 56.365 C 293.131 55.866,293.080 55.880,293.308 56.487 C 293.665 57.440,293.007 57.735,292.345 56.919 C 291.970 56.456,291.956 56.340,292.300 56.547 C 292.637 56.749,292.800 56.571,292.800 56.000 C 292.800 55.534,292.620 55.264,292.400 55.400 C 292.180 55.536,291.986 55.322,291.968 54.924 C 291.951 54.526,291.854 54.400,291.753 54.645 C 291.652 54.890,290.382 53.860,288.929 52.356 C 287.477 50.852,286.106 49.734,285.883 49.872 C 285.659 50.011,285.586 49.947,285.719 49.731 C 285.853 49.514,284.891 48.277,283.581 46.981 C 282.271 45.685,281.200 44.384,281.200 44.089 C 281.200 43.794,281.044 43.649,280.853 43.767 C 280.450 44.016,279.458 42.955,279.014 41.800 C 278.795 41.229,278.649 41.156,278.505 41.545 C 278.378 41.887,278.208 41.937,278.048 41.677 C 277.907 41.450,277.528 41.205,277.206 41.132 C 276.388 40.948,275.600 40.159,275.600 39.523 C 275.600 39.230,273.090 36.484,270.022 33.422 C 266.953 30.359,264.533 27.709,264.642 27.531 C 264.752 27.354,264.560 27.317,264.216 27.449 C 263.745 27.630,263.658 27.514,263.863 26.979 C 264.050 26.492,263.989 26.360,263.667 26.558 C 263.378 26.737,263.049 26.456,262.809 25.824 C 262.412 24.781,261.871 24.392,262.080 25.300 C 262.143 25.575,262.021 25.800,261.808 25.800 C 261.595 25.800,261.475 25.391,261.541 24.890 C 261.616 24.316,261.471 24.021,261.148 24.090 C 260.867 24.151,260.606 23.975,260.568 23.700 C 260.531 23.425,260.478 23.076,260.450 22.924 C 260.423 22.771,260.117 22.996,259.770 23.424 C 259.424 23.851,259.260 23.966,259.407 23.679 C 259.574 23.351,258.364 21.831,256.136 19.574 L 252.600 15.989 252.000 17.094 M144.593 190.788 C 136.017 199.361,128.948 206.620,128.884 206.918 C 128.820 207.217,137.384 216.088,147.914 226.631 C 158.445 237.174,167.181 246.126,167.327 246.525 C 167.819 247.862,166.517 249.337,152.727 263.066 C 145.177 270.583,136.662 279.089,133.804 281.968 L 128.608 287.204 144.204 302.809 C 152.782 311.392,159.999 318.366,160.241 318.307 C 160.484 318.248,169.260 309.744,179.744 299.408 C 190.227 289.072,199.199 280.470,199.681 280.292 C 201.336 279.680,202.664 280.861,221.413 299.613 C 231.744 309.946,240.378 318.400,240.600 318.400 C 241.071 318.400,272.000 287.550,272.000 287.080 C 272.000 286.907,263.705 278.448,253.566 268.282 C 233.007 247.671,233.200 247.875,233.200 246.679 C 233.200 246.078,238.983 240.032,252.400 226.604 C 262.960 216.036,271.600 207.211,271.600 206.993 C 271.600 206.481,240.498 175.376,240.228 175.618 C 240.116 175.718,231.404 184.395,220.867 194.900 C 204.366 211.352,201.548 214.000,200.544 214.000 C 199.539 214.000,196.678 211.311,179.905 194.600 C 169.195 183.930,160.377 175.200,160.309 175.200 C 160.241 175.200,153.169 182.214,144.593 190.788 " stroke="none" fill="#941c24" fill-rule="evenodd"></path><path id="path1" d="M68.800 14.313 C 68.800 14.485,68.305 14.600,67.700 14.567 C 66.256 14.489,65.198 15.060,65.206 15.914 C 65.211 16.509,65.269 16.520,65.644 16.000 C 66.003 15.501,66.035 15.523,65.838 16.133 C 65.707 16.536,65.556 56.316,65.501 104.533 L 65.403 192.200 65.200 104.400 C 65.045 36.923,64.976 59.052,64.905 200.000 C 64.805 398.367,64.664 385.484,66.933 385.323 C 67.530 385.281,67.914 385.416,67.786 385.623 C 67.640 385.859,117.302 386.000,200.000 386.000 C 272.846 386.000,332.360 385.859,332.253 385.687 C 332.147 385.514,332.533 385.379,333.111 385.387 C 335.322 385.415,335.196 394.611,335.095 241.000 L 335.001 98.600 334.900 240.581 C 334.844 318.670,334.664 382.696,334.499 382.861 C 334.335 383.025,334.246 319.719,334.301 242.180 C 334.382 129.445,334.302 101.198,333.901 101.191 C 333.626 101.186,314.711 101.141,291.868 101.091 C 251.012 101.001,250.326 100.987,249.757 100.209 C 249.260 99.529,249.194 93.530,249.289 57.314 C 249.380 22.837,249.305 15.172,248.875 15.007 C 248.586 14.896,248.461 14.624,248.598 14.403 C 248.765 14.133,219.158 14.000,158.824 14.000 C 109.311 14.000,68.800 14.141,68.800 14.313 M249.968 14.928 C 250.174 15.134,250.632 15.102,251.061 14.852 C 251.710 14.473,251.666 14.430,250.707 14.497 C 250.071 14.541,249.762 14.722,249.968 14.928 M252.054 15.100 C 252.084 15.265,253.929 17.107,256.154 19.193 L 260.200 22.985 256.208 18.893 C 252.173 14.757,251.957 14.560,252.054 15.100 M270.400 33.400 C 273.584 36.590,276.280 39.200,276.390 39.200 C 276.500 39.200,273.984 36.590,270.800 33.400 C 267.616 30.210,264.920 27.600,264.810 27.600 C 264.700 27.600,267.216 30.210,270.400 33.400 M286.200 49.200 C 289.054 52.060,291.478 54.400,291.588 54.400 C 291.698 54.400,289.454 52.060,286.600 49.200 C 283.746 46.340,281.322 44.000,281.212 44.000 C 281.102 44.000,283.346 46.340,286.200 49.200 M303.600 66.600 C 307.005 70.010,309.880 72.800,309.990 72.800 C 310.100 72.800,307.405 70.010,304.000 66.600 C 300.595 63.190,297.720 60.400,297.610 60.400 C 297.500 60.400,300.195 63.190,303.600 66.600 M320.400 83.400 C 323.584 86.590,326.280 89.200,326.390 89.200 C 326.500 89.200,323.984 86.590,320.800 83.400 C 317.616 80.210,314.920 77.600,314.810 77.600 C 314.700 77.600,317.216 80.210,320.400 83.400 M332.600 95.600 C 333.459 96.480,334.252 97.200,334.362 97.200 C 334.472 97.200,333.859 96.480,333.000 95.600 C 332.141 94.720,331.348 94.000,331.238 94.000 C 331.128 94.000,331.741 94.720,332.600 95.600 M180.596 192.000 C 191.164 202.560,200.076 211.200,200.400 211.200 C 200.724 211.200,209.636 202.560,220.204 192.000 C 230.772 181.440,239.721 172.800,240.089 172.800 C 241.826 172.800,274.400 205.102,274.400 206.825 C 274.400 207.542,269.717 212.463,255.200 227.000 C 244.640 237.575,236.000 246.489,236.000 246.808 C 236.000 247.128,244.730 256.126,255.400 266.804 C 268.023 279.437,274.800 286.498,274.800 287.017 C 274.800 287.534,269.064 293.553,258.494 304.125 C 241.617 321.008,241.430 321.184,240.345 321.194 C 239.985 321.197,231.029 312.560,220.442 302.000 C 209.854 291.440,200.896 282.800,200.533 282.800 C 200.170 282.800,193.917 288.690,186.637 295.889 C 158.963 323.255,161.144 321.182,160.011 321.194 C 159.419 321.200,127.084 289.208,126.359 287.900 C 125.684 286.681,126.430 285.857,145.936 266.298 L 164.985 247.196 145.492 227.688 C 128.545 210.728,126.000 208.026,126.000 206.996 C 126.000 205.208,158.408 172.800,160.196 172.800 C 161.226 172.800,163.894 175.312,180.596 192.000 M65.500 336.100 C 65.443 362.335,65.397 340.870,65.397 288.400 C 65.397 235.930,65.443 214.465,65.500 240.700 C 65.557 266.935,65.557 309.865,65.500 336.100 M265.868 385.500 C 229.605 385.556,170.385 385.556,134.268 385.500 C 98.150 385.444,127.820 385.398,200.200 385.398 C 272.580 385.398,302.130 385.444,265.868 385.500 " stroke="none" fill="#e43c44" fill-rule="evenodd"></path><path id="path2" d="M248.800 14.858 C 249.328 15.220,249.387 20.311,249.289 57.344 C 249.194 93.534,249.260 99.529,249.757 100.209 C 250.326 100.987,251.012 101.001,291.868 101.091 C 314.711 101.141,333.626 101.186,333.901 101.191 C 334.302 101.198,334.382 129.441,334.301 242.162 C 334.246 319.691,334.335 383.040,334.500 382.938 C 334.955 382.657,334.875 100.494,334.420 100.213 C 334.211 100.083,315.574 99.985,293.004 99.994 C 265.107 100.006,251.717 99.877,251.184 99.591 C 250.368 99.155,249.892 17.842,250.700 17.033 C 250.865 16.868,251.008 16.523,251.018 16.267 C 251.028 16.010,251.284 15.855,251.586 15.923 C 252.030 16.022,252.040 15.930,251.638 15.446 C 251.365 15.117,250.903 14.939,250.611 15.051 C 250.320 15.163,249.962 15.062,249.817 14.827 C 249.672 14.592,249.248 14.411,248.876 14.424 C 248.290 14.444,248.280 14.502,248.800 14.858 M65.396 104.400 C 65.396 152.690,65.443 172.445,65.500 148.300 C 65.557 124.155,65.557 84.645,65.500 60.500 C 65.443 36.355,65.396 56.110,65.396 104.400 M142.505 189.305 C 128.193 203.618,126.000 205.968,126.000 206.996 C 126.000 208.026,128.545 210.728,145.492 227.688 L 164.985 247.196 145.936 266.298 C 126.430 285.857,125.684 286.681,126.359 287.900 C 127.084 289.208,159.419 321.200,160.011 321.194 C 161.144 321.182,158.963 323.255,186.637 295.889 C 193.917 288.690,200.170 282.800,200.533 282.800 C 200.896 282.800,209.854 291.440,220.442 302.000 C 231.029 312.560,239.985 321.197,240.345 321.194 C 241.430 321.184,241.617 321.008,258.494 304.125 C 269.064 293.553,274.800 287.534,274.800 287.017 C 274.800 286.498,268.023 279.437,255.400 266.804 C 244.730 256.126,236.000 247.128,236.000 246.808 C 236.000 246.489,244.640 237.575,255.200 227.000 C 269.717 212.463,274.400 207.542,274.400 206.825 C 274.400 205.102,241.826 172.800,240.089 172.800 C 239.721 172.800,230.772 181.440,220.204 192.000 C 209.636 202.560,200.724 211.200,200.400 211.200 C 200.076 211.200,191.164 202.560,180.596 192.000 C 163.894 175.312,161.226 172.800,160.196 172.800 C 159.168 172.800,156.817 174.994,142.505 189.305 M180.436 193.440 C 193.137 206.132,200.118 212.831,200.545 212.740 C 200.905 212.663,209.810 204.005,220.334 193.500 C 232.988 180.869,239.743 174.400,240.280 174.400 C 241.409 174.400,272.800 205.838,272.800 206.968 C 272.800 207.518,266.451 214.143,253.600 227.004 C 243.040 237.572,234.400 246.479,234.400 246.796 C 234.400 247.113,243.130 256.115,253.800 266.800 C 266.347 279.364,273.200 286.507,273.200 287.020 C 273.200 288.405,241.061 320.186,240.167 319.685 C 239.770 319.463,230.944 310.791,220.554 300.413 C 203.232 283.111,201.564 281.555,200.473 281.672 C 199.511 281.776,195.613 285.414,180.087 300.700 C 168.636 311.975,160.591 319.600,160.147 319.600 C 159.147 319.600,127.600 288.058,127.600 287.057 C 127.600 286.605,135.159 278.728,146.700 267.152 C 157.205 256.615,165.857 247.641,165.926 247.211 C 166.019 246.635,160.926 241.298,146.626 226.987 C 135.942 216.294,127.200 207.249,127.200 206.888 C 127.200 205.919,159.219 174.000,160.191 174.000 C 160.700 174.000,167.911 180.925,180.436 193.440 M65.397 288.200 C 65.397 340.560,65.443 362.039,65.500 335.932 C 65.557 309.825,65.557 266.985,65.500 240.732 C 65.443 214.479,65.397 235.840,65.397 288.200 M134.268 385.500 C 170.385 385.556,229.605 385.556,265.868 385.500 C 302.130 385.444,272.580 385.398,200.200 385.398 C 127.820 385.398,98.150 385.444,134.268 385.500 " stroke="none" fill="#d0343b" fill-rule="evenodd"></path><path id="path3" d="M251.334 15.094 C 251.488 15.342,251.427 15.660,251.200 15.800 C 250.973 15.940,250.883 16.210,251.000 16.400 C 251.117 16.590,251.030 16.858,250.807 16.996 C 249.910 17.550,250.283 99.109,251.184 99.591 C 251.717 99.877,265.107 100.006,293.004 99.994 C 315.574 99.985,334.210 100.083,334.418 100.211 C 334.625 100.339,334.760 100.029,334.718 99.522 L 334.642 98.600 293.452 98.711 C 265.221 98.787,252.130 98.690,251.844 98.404 C 251.073 97.633,251.256 18.336,252.032 17.053 L 252.664 16.009 256.166 19.588 C 258.448 21.919,259.566 23.347,259.375 23.683 C 259.139 24.101,259.187 24.103,259.627 23.694 C 260.078 23.276,259.590 22.601,256.786 19.765 C 253.632 16.576,250.695 14.060,251.334 15.094 M261.473 25.354 C 261.342 25.695,261.395 26.073,261.590 26.194 C 262.100 26.509,262.404 25.854,262.029 25.247 C 261.781 24.846,261.659 24.869,261.473 25.354 M269.670 33.083 C 272.931 36.318,275.600 39.211,275.600 39.511 C 275.600 40.157,276.382 40.947,277.206 41.132 C 277.528 41.205,277.926 41.475,278.090 41.732 C 278.254 41.989,278.391 42.038,278.394 41.840 C 278.401 41.443,264.386 27.200,263.988 27.200 C 263.852 27.200,266.408 29.847,269.670 33.083 M283.514 46.822 C 284.894 48.264,285.882 49.598,285.711 49.786 C 285.540 49.974,285.600 50.014,285.845 49.875 C 286.089 49.735,287.484 50.859,288.945 52.372 C 290.405 53.884,291.600 55.002,291.600 54.855 C 291.600 54.709,289.216 52.251,286.303 49.394 C 283.389 46.537,282.134 45.380,283.514 46.822 M292.800 56.395 C 292.800 56.644,292.575 56.720,292.300 56.565 C 291.931 56.357,291.937 56.430,292.320 56.841 C 292.606 57.149,293.056 57.400,293.320 57.400 C 293.584 57.400,293.800 57.625,293.800 57.900 C 293.800 58.175,293.973 58.387,294.184 58.370 C 294.396 58.354,294.680 58.657,294.815 59.044 C 294.965 59.471,295.165 59.580,295.324 59.322 C 295.469 59.089,294.960 58.233,294.193 57.420 C 293.427 56.608,292.800 56.146,292.800 56.395 M302.750 66.069 C 307.470 70.879,309.589 73.308,309.384 73.669 C 309.139 74.101,309.185 74.105,309.631 73.691 C 310.086 73.268,308.959 71.977,302.996 66.091 L 295.814 59.000 302.750 66.069 M311.473 75.354 C 311.342 75.695,311.395 76.073,311.590 76.194 C 312.100 76.509,312.404 75.854,312.029 75.247 C 311.781 74.846,311.659 74.869,311.473 75.354 M319.670 83.083 C 322.931 86.318,325.600 89.211,325.600 89.511 C 325.600 90.157,326.382 90.947,327.206 91.132 C 327.528 91.205,327.926 91.475,328.090 91.732 C 328.254 91.989,328.391 92.038,328.394 91.840 C 328.401 91.443,314.386 77.200,313.988 77.200 C 313.852 77.200,316.408 79.847,319.670 83.083 M332.329 95.726 C 333.036 96.456,333.476 97.205,333.307 97.390 C 333.138 97.576,333.241 97.589,333.535 97.419 C 334.016 97.141,331.935 94.400,331.243 94.400 C 331.133 94.400,331.622 94.997,332.329 95.726 M143.301 190.115 C 134.445 198.978,127.200 206.526,127.200 206.888 C 127.200 207.249,135.942 216.294,146.626 226.987 C 160.926 241.298,166.019 246.635,165.926 247.211 C 165.857 247.641,157.205 256.615,146.700 267.152 C 135.159 278.728,127.600 286.605,127.600 287.057 C 127.600 288.058,159.147 319.600,160.147 319.600 C 160.591 319.600,168.636 311.975,180.087 300.700 C 195.613 285.414,199.511 281.776,200.473 281.672 C 201.564 281.555,203.232 283.111,220.554 300.413 C 230.944 310.791,239.770 319.463,240.167 319.685 C 241.061 320.186,273.200 288.405,273.200 287.020 C 273.200 286.507,266.347 279.364,253.800 266.800 C 243.130 256.115,234.400 247.113,234.400 246.796 C 234.400 246.479,243.040 237.572,253.600 227.004 C 266.451 214.143,272.800 207.518,272.800 206.968 C 272.800 205.838,241.409 174.400,240.280 174.400 C 239.743 174.400,232.988 180.869,220.334 193.500 C 209.810 204.005,200.905 212.663,200.545 212.740 C 200.118 212.831,193.137 206.132,180.436 193.440 C 167.911 180.925,160.700 174.000,160.191 174.000 C 159.685 174.000,153.630 179.777,143.301 190.115 M179.905 194.600 C 196.678 211.311,199.539 214.000,200.544 214.000 C 201.548 214.000,204.366 211.352,220.867 194.900 C 231.404 184.395,240.116 175.718,240.228 175.618 C 240.498 175.376,271.600 206.481,271.600 206.993 C 271.600 207.211,262.960 216.036,252.400 226.604 C 238.983 240.032,233.200 246.078,233.200 246.679 C 233.200 247.875,233.007 247.671,253.566 268.282 C 263.705 278.448,272.000 286.907,272.000 287.080 C 272.000 287.550,241.071 318.400,240.600 318.400 C 240.378 318.400,231.744 309.946,221.413 299.613 C 202.664 280.861,201.336 279.680,199.681 280.292 C 199.199 280.470,190.227 289.072,179.744 299.408 C 169.260 309.744,160.484 318.248,160.241 318.307 C 159.999 318.366,152.782 311.392,144.204 302.809 L 128.608 287.204 133.804 281.968 C 136.662 279.089,145.177 270.583,152.727 263.066 C 166.517 249.337,167.819 247.862,167.327 246.525 C 167.181 246.126,158.445 237.174,147.914 226.631 C 137.384 216.088,128.820 207.217,128.884 206.918 C 128.982 206.459,159.952 175.200,160.309 175.200 C 160.377 175.200,169.195 183.930,179.905 194.600 " stroke="none" fill="#9c1c24" fill-rule="evenodd"></path></g></svg>