<svg id="e7T86AciNRS1" xmlns="http://www.w3.org/2000/svg" xmlns:xlink="http://www.w3.org/1999/xlink" viewBox="0 0 500 500" shape-rendering="geometricPrecision" text-rendering="geometricPrecision"><g id="e7T86AciNRS2" transform="translate(.000054 0.000455)"><path id="e7T86AciNRS3" d="M113.09,160.095l-.005-.006.007.004-.002.001v.001ZM242.986,85.104c.001.005.003.011.004.016v-.016l.003-.009l129.89,75.003c-7.204,10.627-35.471,25.73-43.302,24.998l-86.59-50.001v-.006c-.002.005-.005.009-.007.014h-.001l-43.298-24.998v-.003l43.301-24.998ZM199.685,160.1v-.003l.003.001-.003.002Zm-43.296,24.995c-12.734,1.859-30.13-5.785-43.297-25.002l43.299-24.997v49.998l-.002.001Zm43.301,24.997l.002-49.997l43.296,25l43.297,25.001-43.3,24.996.003-49.995c-4.085-2.657-44.51,23.581-43.298,24.995Zm-.002.003c6.453-9.207,41.495-30.179,43.299-24.996c3.816,9.388,7.187,31.544-.003,49.997l-43.296-25.001Z" paint-order="stroke fill markers" fill="#035c64" stroke="#035c64" stroke-width="0"/><path id="e7T86AciNRS4" d="M113.093,160.089v.011l-.008-.005.008-.006Zm43.298,25.002l-.005,99.993-.002.001c.003.003.005.006.007.009v50.002L113.09,310.092c.004-.007.008-.014.011-.02l-.016.009.008-149.981l43.298,24.991Zm86.59,150.004c3.62,5.006,5.458,39.824.004,49.991l-.006.009-43.294-25v-.01l43.29-24.994.006.004Zm.008-50.001L199.69,310.09l.002-49.994-.004-.002l43.299-24.996-.003,49.993.005.003Zm-.005-50c-2.626,9.129-32.325,23.775-43.299,24.996l.003-49.997l43.296,25.001Z" paint-order="stroke fill markers" fill="#4fbe9f" stroke="#4fbe9f" stroke-width="0"/><path id="e7T86AciNRS5" d="M372.883,160.089l.004.006-.008,149.985c.002.003.004.006.006.009l-.002.007-129.897,74.99.002-49.999l86.595-49.992c.004,0,.009-.001.013-.001l-.015-.009.005-99.989l43.297-25.007ZM242.988,235.092l43.299-24.996-.003,49.997-43.296-25.001Zm43.297,25.004l-43.3,24.995.003-49.997c15.876.664,34.845,13.672,43.297,25.002Zm86.6,49.993l.002-.008v.011c-.001-.001-.001-.002-.002-.003Z" paint-order="stroke fill markers" fill="#298d82" stroke="#298d82" stroke-width="0"/></g></svg>