<svg xmlns="http://www.w3.org/2000/svg" width="512" height="197" style="overflow: visible;" viewBox="0 0 512 197" data-svgdocument="" id="_dS9AwksbZoQVo1p2Lnhce" class="fl-svgdocument" x="0" y="0" overflow="hidden" data-bbox="78.75419021515 142.7685522221954 381.90117701648836 146.64271020604718"><defs id="_ahyBLYSZHW0GMvkrxuP2p" transform="matrix(1.230769157409668, 0, 0, 1.230769157409668, -59.076881408691406, -30.782167434692383)" data-uid="o_f0i404360_5"><linearGradient x1="50.02%" y1="0.06%" x2="49.98%" y2="99.94%" id="g_1513025828_1" gradientUnits="objectBoundingBox" data-uid="o_f0i404360_16"><stop offset="52%" stop-color="rgb(25, 200, 178)" stop-opacity="1.00" data-uid="o_f0i404360_17"></stop><stop offset="100%" stop-color="rgb(19, 153, 131)" stop-opacity="1.00" data-uid="o_f0i404360_18"></stop></linearGradient></defs><path id="_n7P3tQAUp9mow-A1r7lIX" d="M82.1 20.871c-0.016-0.801-0.563-1.254-1.171-1.478l-28.733-7.502c-0.676-0.169-1.395-0.363-2.068-0.363    c-0.676 0-1.315 0.145-1.889 0.417l-0.7 0.405L20.045 28.321c-0.091 0.061-0.179 0.127-0.267 0.193    c-4.291 2.829-5.058 5.846-5.058 9.212V69.36c0 1.614 0.858 3.028 2.147 3.809l0.03 0.019l27.661 15.958    c0.3 0.182 0.655 0.287 1.031 0.287c1.098 0 1.989-0.889 1.989-1.982V55.457c0-1.535-0.779-2.887-1.962-3.688l-0.618-0.351    L22.58 38.776c-1.725-1.019-1.88-3.013-1.364-4.21c0.743-1.711 2.565-2.041 3.832-1.732l23.328 5.976    c0.785 0.181 1.349 0.344 2.056 0.344c0.715 0 1.391-0.166 1.992-0.465l0.4-0.227l28.079-15.835    C81.414 22.27 82.118 21.666 82.1 20.871z M83.655 32.492l-6.916-3.805l-5.536 3.207c0 0 6.349 3.5 7.419 4.225    c1.295 0.876 0.785 2.164-0.07 2.645L56.119 51.419l-0.609 0.342c-0.003 0.003-0.007 0.006-0.01 0.009    c-1.186 0.801-1.961 2.152-1.961 3.688V87.45c0 1.094 0.888 1.982 1.985 1.982c0.343 0 0.667-0.088 0.949-0.241    c0.027-0.013 0.055-0.028 0.082-0.046l27.651-15.953l0.039-0.023c1.286-0.78 2.146-2.194 2.146-3.809V37.727    C86.393 34.967 85.708 33.647 83.655 32.492z" fill="url(#g_1513025828_1)" transform="matrix(2.510671858647758, 0, 0, 2.510671858647758, -36.454953663624124, -28.44089050828333)" stroke="none" stroke-width="0.4" data-uid="o_f0i404360_9"></path><path text="Drive" text-anchor="middle" font-size="100" letter-spacing="0" side="left" offset="0.5" dx="0" dy="0" space="preserve" href="" font-family="DM Sans" font-scale="contain" transform="matrix(1.2846134553751443, 0, 0, 1.2846134553751443, 356.8829252634513, 143.77438853619427)" x="0" y="0" fill="#505050" data-fl-textpath="" id="_jr_ncPTcN48qsU_fEMMIW" font-weight="700" font-style="normal" data-uid="o_f0i404360_10" d="M-94.35000000000004 0L-118.25000000000004 0L-118.25000000000004-70L-94.35000000000004-70Q-82.05000000000004-70 -74.10000000000004-65.65Q-66.15000000000003-61.3 -62.30000000000004-53.45Q-58.450000000000045-45.6 -58.450000000000045-35L-58.450000000000045-35Q-58.450000000000045-24.4 -62.30000000000004-16.55Q-66.15000000000003-8.7 -74.10000000000004-4.35Q-82.05000000000004 0 -94.35000000000004 0L-94.35000000000004 0ZM-105.45000000000005-59.1L-105.45000000000005-11L-94.95000000000005-11Q-86.15000000000003-11 -81.05000000000004-13.85Q-75.95000000000005-16.7 -73.75000000000004-22.05Q-71.55000000000004-27.4 -71.55000000000004-35L-71.55000000000004-35Q-71.55000000000004-42.5 -73.75000000000004-47.9Q-75.95000000000005-53.3 -81.05000000000004-56.2Q-86.15000000000003-59.1 -94.95000000000005-59.1L-94.95000000000005-59.1L-105.45000000000005-59.1ZM-34.65000000000002 0L-47.45000000000002 0L-47.45000000000002-49.6L-36.05000000000002-49.6L-34.850000000000016-40.3Q-32.15000000000002-45.1 -27.500000000000018-47.95Q-22.850000000000016-50.8 -16.55000000000002-50.8L-16.55000000000002-50.8L-16.55000000000002-37.3L-20.15000000000002-37.3Q-24.350000000000016-37.3 -27.650000000000016-36Q-30.950000000000017-34.7 -32.80000000000002-31.5Q-34.65000000000002-28.3 -34.65000000000002-22.6L-34.65000000000002-22.6L-34.65000000000002 0ZM-0.9500000000000153-57.3L-0.9500000000000153-57.3Q-4.450000000000015-57.3 -6.700000000000015-59.4Q-8.950000000000015-61.5 -8.950000000000015-64.7L-8.950000000000015-64.7Q-8.950000000000015-67.9 -6.700000000000015-69.95Q-4.450000000000015-72 -0.9500000000000153-72L-0.9500000000000153-72Q 2.549999999999983-72  4.799999999999983-69.95Q 7.049999999999983-67.9  7.049999999999983-64.7L 7.049999999999983-64.7Q 7.049999999999983-61.5  4.799999999999983-59.4Q 2.549999999999983-57.3 -0.9500000000000153-57.3ZM 5.449999999999985 0L-7.350000000000016 0L-7.350000000000016-49.6L 5.449999999999985-49.6L 5.449999999999985 0ZM 47.749999999999986 0L 32.249999999999986 0L 14.049999999999986-49.6L 27.44999999999999-49.6L 40.04999999999998-12.1L 52.649999999999984-49.6L 66.04999999999998-49.6L 47.749999999999986 0ZM 95.85 1.2L 95.85 1.2Q 88.35 1.2  82.55-2Q 76.75-5.2  73.45-11Q 70.15-16.8  70.15-24.4L 70.15-24.4Q 70.15-32.1  73.4-38.1Q 76.65-44.1  82.4-47.45Q 88.15-50.8  95.95-50.8L 95.95-50.8Q 103.25-50.8  108.85-47.6Q 114.45-44.4  117.6-38.85Q 120.75-33.3  120.75-26.5L 120.75-26.5Q 120.75-25.4  120.7-24.2Q 120.65-23  120.55-21.7L 120.55-21.7L 82.85-21.7Q 83.25-15.9  86.9-12.6Q 90.55-9.3  95.75-9.3L 95.75-9.3Q 99.65-9.3  102.3-11.05Q 104.95-12.8  106.25-15.6L 106.25-15.6L 119.25-15.6Q 117.85-10.9  114.6-7.05Q 111.35-3.2  106.6-1Q 101.85 1.2  95.85 1.2ZM 95.95-40.4L 95.95-40.4Q 91.25-40.4  87.65-37.75Q 84.05-35.1  83.05-29.7L 83.05-29.7L 107.75-29.7Q 107.45-34.6  104.15-37.5Q 100.85-40.4  95.95-40.4Z"></path></svg>
