<svg xmlns="http://www.w3.org/2000/svg" width="512" height="197" style="overflow: visible;" viewBox="0 0 0 0"  class="fl-svgdocument" overflow="hidden" ><defs transform="matrix(1.230769157409668, 0, 0, 1.230769157409668, -59.076881408691406, -30.782167434692383)" ><linearGradient x1="50.02%" y1="0.06%" x2="49.98%" y2="99.94%" id="g_1513025828_1" gradientUnits="objectBoundingBox" ><stop stop-color="rgb(25, 200, 178)" stop-opacity="1.00" ></stop><stop stop-color="rgb(19, 153, 131)" stop-opacity="1.00" ></stop></linearGradient></defs><path d="M82.1 20.871c-0.016-0.801-0.563-1.254-1.171-1.478l-28.733-7.502c-0.676-0.169-1.395-0.363-2.068-0.363    c-0.676 0-1.315 0.145-1.889 0.417l-0.7 0.405L20.045 28.321c-0.091 0.061-0.179 0.127-0.267 0.193    c-4.291 2.829-5.058 5.846-5.058 9.212V69.36c0 1.614 0.858 3.028 2.147 3.809l0.03 0.019l27.661 15.958    c0.3 0.182 0.655 0.287 1.031 0.287c1.098 0 1.989-0.889 1.989-1.982V55.457c0-1.535-0.779-2.887-1.962-3.688l-0.618-0.351    L22.58 38.776c-1.725-1.019-1.88-3.013-1.364-4.21c0.743-1.711 2.565-2.041 3.832-1.732l23.328 5.976    c0.785 0.181 1.349 0.344 2.056 0.344c0.715 0 1.391-0.166 1.992-0.465l0.4-0.227l28.079-15.835    C81.414 22.27 82.118 21.666 82.1 20.871z M83.655 32.492l-6.916-3.805l-5.536 3.207c0 0 6.349 3.5 7.419 4.225    c1.295 0.876 0.785 2.164-0.07 2.645L56.119 51.419l-0.609 0.342c-0.003 0.003-0.007 0.006-0.01 0.009    c-1.186 0.801-1.961 2.152-1.961 3.688V87.45c0 1.094 0.888 1.982 1.985 1.982c0.343 0 0.667-0.088 0.949-0.241    c0.027-0.013 0.055-0.028 0.082-0.046l27.651-15.953l0.039-0.023c1.286-0.78 2.146-2.194 2.146-3.809V37.727    C86.393 34.967 85.708 33.647 83.655 32.492z" fill="url(#g_1513025828_1)" transform="matrix(2.510671858647758, 0, 0, 2.510671858647758, -36.454953663624124, -28.44089050828333)" stroke="none" stroke-width="0.4" ></path><path transform="matrix(1.2846134553751443, 0, 0, 1.2846134553751443, 356.8829252634513, 143.77438853619427)" fill="#505050" d="M-94.35000000000004 0L-118.25000000000004 0L-118.25000000000004-70L-94.35000000000004-70Q-82.05000000000004-70 -74.10000000000004-65.65Q-66.15000000000003-61.3 -62.30000000000004-53.45Q-58.450000000000045-45.6 -58.450000000000045-35L-58.450000000000045-35Q-58.450000000000045-24.4 -62.30000000000004-16.55Q-66.15000000000003-8.7 -74.10000000000004-4.35Q-82.05000000000004 0 -94.35000000000004 0L-94.35000000000004 0ZM-105.45000000000005-59.1L-105.45000000000005-11L-94.95000000000005-11Q-86.15000000000003-11 -81.05000000000004-13.85Q-75.95000000000005-16.7 -73.75000000000004-22.05Q-71.55000000000004-27.4 -71.55000000000004-35L-71.55000000000004-35Q-71.55000000000004-42.5 -73.75000000000004-47.9Q-75.95000000000005-53.3 -81.05000000000004-56.2Q-86.15000000000003-59.1 -94.95000000000005-59.1L-94.95000000000005-59.1L-105.45000000000005-59.1ZM-34.65000000000002 0L-47.45000000000002 0L-47.45000000000002-49.6L-36.05000000000002-49.6L-34.850000000000016-40.3Q-32.15000000000002-45.1 -27.500000000000018-47.95Q-22.850000000000016-50.8 -16.55000000000002-50.8L-16.55000000000002-50.8L-16.55000000000002-37.3L-20.15000000000002-37.3Q-24.350000000000016-37.3 -27.650000000000016-36Q-30.950000000000017-34.7 -32.80000000000002-31.5Q-34.65000000000002-28.3 -34.65000000000002-22.6L-34.65000000000002-22.6L-34.65000000000002 0ZM-0.9500000000000153-57.3L-0.9500000000000153-57.3Q-4.450000000000015-57.3 -6.700000000000015-59.4Q-8.950000000000015-61.5 -8.950000000000015-64.7L-8.950000000000015-64.7Q-8.950000000000015-67.9 -6.700000000000015-69.95Q-4.450000000000015-72 -0.9500000000000153-72L-0.9500000000000153-72Q 2.549999999999983-72  4.799999999999983-69.95Q 7.049999999999983-67.9  7.049999999999983-64.7L 7.049999999999983-64.7Q 7.049999999999983-61.5  4.799999999999983-59.4Q 2.549999999999983-57.3 -0.9500000000000153-57.3ZM 5.449999999999985 0L-7.350000000000016 0L-7.350000000000016-49.6L 5.449999999999985-49.6L 5.449999999999985 0ZM 47.749999999999986 0L 32.249999999999986 0L 14.049999999999986-49.6L 27.44999999999999-49.6L 40.04999999999998-12.1L 52.649999999999984-49.6L 66.04999999999998-49.6L 47.749999999999986 0ZM 95.85 1.2L 95.85 1.2Q 88.35 1.2  82.55-2Q 76.75-5.2  73.45-11Q 70.15-16.8  70.15-24.4L 70.15-24.4Q 70.15-32.1  73.4-38.1Q 76.65-44.1  82.4-47.45Q 88.15-50.8  95.95-50.8L 95.95-50.8Q 103.25-50.8  108.85-47.6Q 114.45-44.4  117.6-38.85Q 120.75-33.3  120.75-26.5L 120.75-26.5Q 120.75-25.4  120.7-24.2Q 120.65-23  120.55-21.7L 120.55-21.7L 82.85-21.7Q 83.25-15.9  86.9-12.6Q 90.55-9.3  95.75-9.3L 95.75-9.3Q 99.65-9.3  102.3-11.05Q 104.95-12.8  106.25-15.6L 106.25-15.6L 119.25-15.6Q 117.85-10.9  114.6-7.05Q 111.35-3.2  106.6-1Q 101.85 1.2  95.85 1.2ZM 95.95-40.4L 95.95-40.4Q 91.25-40.4  87.65-37.75Q 84.05-35.1  83.05-29.7L 83.05-29.7L 107.75-29.7Q 107.45-34.6  104.15-37.5Q 100.85-40.4  95.95-40.4Z"></path><path transform="matrix(0.2673719525795328, 0, 0, 0.2673719525795328, 302.3275413904193, 181.62318464871325)" fill="#505050" d="M-364.1-71L-356.40000000000003-71L-333.20000000000005-32.8L-309.80000000000007-71L-302.20000000000005-71L-329.70000000000005-26.4L-329.70000000000005 0L-336.70000000000005 0L-336.70000000000005-26.6L-364.1-71ZM-280.20000000000005 1L-280.20000000000005 1Q-285.90000000000003 1 -290.6-1.15Q-295.3-3.3 -298.75000000000006-7Q-302.20000000000005-10.7 -304.1-15.6Q-306.00000000000006-20.5 -306.00000000000006-25.9L-306.00000000000006-25.9Q-306.00000000000006-31.4 -304.05-36.3Q-302.1-41.2 -298.65000000000003-44.9Q-295.20000000000005-48.6 -290.50000000000006-50.8Q-285.8-53 -280.20000000000005-53L-280.20000000000005-53Q-274.6-53 -269.85-50.8Q-265.1-48.6 -261.65000000000003-44.9Q-258.20000000000005-41.2 -256.25000000000006-36.3Q-254.30000000000004-31.4 -254.30000000000004-25.9L-254.30000000000004-25.9Q-254.30000000000004-20.5 -256.20000000000005-15.6Q-258.1-10.7 -261.55-7Q-265.00000000000006-3.3 -269.75000000000006-1.15Q-274.50000000000006 1 -280.20000000000005 1ZM-299.1-25.8L-299.1-25.8Q-299.1-21.4 -297.6-17.65Q-296.1-13.9 -293.55-11.05Q-291.00000000000006-8.2 -287.55-6.6Q-284.1-5 -280.20000000000005-5L-280.20000000000005-5Q-276.3-5 -272.85-6.65Q-269.40000000000003-8.3 -266.8-11.15Q-264.20000000000005-14 -262.70000000000005-17.8Q-261.20000000000005-21.6 -261.20000000000005-26L-261.20000000000005-26Q-261.20000000000005-30.3 -262.70000000000005-34.15Q-264.20000000000005-38 -266.8-40.85Q-269.40000000000003-43.7 -272.85-45.35Q-276.3-47 -280.20000000000005-47L-280.20000000000005-47Q-284.1-47 -287.50000000000006-45.35Q-290.90000000000003-43.7 -293.50000000000006-40.8Q-296.1-37.9 -297.6-34.05Q-299.1-30.2 -299.1-25.8ZM-226.60000000000002 1L-226.60000000000002 1Q-235.10000000000002 1 -239.25000000000003-4.65Q-243.40000000000003-10.3 -243.40000000000003-21.5L-243.40000000000003-21.5L-243.40000000000003-52.1L-236.60000000000002-52.1L-236.60000000000002-22.7Q-236.60000000000002-5 -224.50000000000003-5L-224.50000000000003-5Q-221.50000000000003-5 -218.60000000000002-6Q-215.70000000000005-7 -213.25000000000003-8.9Q-210.80000000000004-10.8 -208.85000000000002-13.4Q-206.90000000000003-16 -205.70000000000005-19.3L-205.70000000000005-19.3L-205.70000000000005-52.1L-198.90000000000003-52.1L-198.90000000000003-8.8Q-198.90000000000003-6 -196.50000000000003-6L-196.50000000000003-6L-196.50000000000003 0Q-197.70000000000005 0.2 -198.45000000000005 0.2Q-199.20000000000005 0.2 -199.50000000000003 0.2L-199.50000000000003 0.2Q-201.90000000000003 0.1 -203.40000000000003-1.5Q-204.90000000000003-3.1 -204.90000000000003-5.8L-204.90000000000003-5.8L-204.90000000000003-11.8Q-208.30000000000004-5.7 -214.15000000000003-2.35Q-220.00000000000003 1 -226.60000000000002 1ZM-157.50000000000003-52.3L-157.50000000000003-46.1Q-164.40000000000003-45.9 -169.50000000000003-42.3Q-174.60000000000002-38.7 -176.70000000000002-32.4L-176.70000000000002-32.4L-176.70000000000002 0L-183.50000000000003 0L-183.50000000000003-52.1L-177.10000000000002-52.1L-177.10000000000002-39.6Q-174.20000000000002-45.6 -169.30000000000004-49Q-164.40000000000003-52.4 -158.8-52.4L-158.8-52.4Q-158.00000000000003-52.4 -157.50000000000003-52.3L-157.50000000000003-52.3ZM-103.9 1L-103.9 1Q-109.30000000000001 1 -113.9-1.25Q-118.50000000000001-3.5 -121.80000000000001-7.2Q-125.10000000000001-10.9 -126.95000000000002-15.75Q-128.8-20.6 -128.8-25.9L-128.8-25.9Q-128.8-31.4 -127.00000000000001-36.35Q-125.20000000000002-41.3 -122.05000000000001-45Q-118.9-48.7 -114.55000000000001-50.85Q-110.20000000000002-53 -105.00000000000001-53L-105.00000000000001-53Q-98.4-53 -93.30000000000001-49.55Q-88.20000000000002-46.1 -85.30000000000001-41.2L-85.30000000000001-41.2L-85.30000000000001-73L-78.50000000000001-73L-78.50000000000001-8.8Q-78.50000000000001-6 -76.10000000000001-6L-76.10000000000001-6L-76.10000000000001 0Q-77.60000000000001 0.3 -78.50000000000001 0.3L-78.50000000000001 0.3Q-80.9 0.3 -82.70000000000002-1.25Q-84.50000000000001-2.8 -84.50000000000001-5L-84.50000000000001-5L-84.50000000000001-10.1Q-87.60000000000001-5 -92.9-2Q-98.20000000000002 1 -103.9 1ZM-102.4-5L-102.4-5Q-99.9-5 -97.05000000000001-6Q-94.20000000000002-7 -91.70000000000002-8.75Q-89.20000000000002-10.5 -87.45000000000002-12.85Q-85.70000000000002-15.2 -85.30000000000001-17.9L-85.30000000000001-17.9L-85.30000000000001-34Q-86.30000000000001-36.7 -88.20000000000002-39.05Q-90.10000000000001-41.4 -92.55000000000001-43.2Q-95.00000000000001-45 -97.80000000000001-46Q-100.60000000000001-47 -103.30000000000001-47L-103.30000000000001-47Q-107.50000000000001-47 -110.9-45.2Q-114.30000000000001-43.4 -116.75000000000001-40.45Q-119.20000000000002-37.5 -120.50000000000001-33.7Q-121.80000000000001-29.9 -121.80000000000001-25.9L-121.80000000000001-25.9Q-121.80000000000001-21.7 -120.30000000000001-17.9Q-118.80000000000001-14.1 -116.20000000000002-11.25Q-113.60000000000001-8.4 -110.05000000000001-6.7Q-106.50000000000001-5 -102.4-5ZM-37.10000000000001-52.3L-37.10000000000001-46.1Q-44.00000000000001-45.9 -49.10000000000001-42.3Q-54.20000000000001-38.7 -56.30000000000001-32.4L-56.30000000000001-32.4L-56.30000000000001 0L-63.10000000000001 0L-63.10000000000001-52.1L-56.70000000000001-52.1L-56.70000000000001-39.6Q-53.80000000000001-45.6 -48.900000000000006-49Q-44.00000000000001-52.4 -38.400000000000006-52.4L-38.400000000000006-52.4Q-37.60000000000001-52.4 -37.10000000000001-52.3L-37.10000000000001-52.3ZM-21.200000000000006 0L-28.000000000000007 0L-28.000000000000007-52.1L-21.200000000000006-52.1L-21.200000000000006 0ZM-21.200000000000006-63L-28.000000000000007-63L-28.000000000000007-73L-21.200000000000006-73L-21.200000000000006-63ZM 16.499999999999993 0L 9.399999999999995 0L-11.800000000000006-52.1L-4.800000000000006-52.1L 13.099999999999994-6.3L 31.09999999999999-52.1L 37.69999999999999-52.1L 16.499999999999993 0ZM 67.80000000000001 1L 67.80000000000001 1Q 62.10000000000001 1  57.35000000000001-1.15Q 52.60000000000001-3.3  49.10000000000001-7.05Q 45.6-10.8  43.650000000000006-15.7Q 41.7-20.6  41.7-26.2L 41.7-26.2Q 41.7-31.7  43.650000000000006-36.55Q 45.6-41.4  49.050000000000004-45.05Q 52.5-48.7  57.300000000000004-50.85Q 62.10000000000001-53  67.7-53L 67.7-53Q 73.4-53  78.15-50.85Q 82.9-48.7  86.30000000000001-45Q 89.7-41.3  91.6-36.5Q 93.5-31.7  93.5-26.3L 93.5-26.3Q 93.5-25.5  93.5-24.7Q 93.5-23.9  93.4-23.6L 93.4-23.6L 48.800000000000004-23.6Q 49.10000000000001-19.4  50.75-15.85Q 52.400000000000006-12.3  55-9.7Q 57.60000000000001-7.1  60.95-5.65Q 64.30000000000001-4.2  68.10000000000001-4.2L 68.10000000000001-4.2Q 70.6-4.2  73.1-4.9Q 75.6-5.6  77.7-6.8Q 79.80000000000001-8  81.5-9.75Q 83.2-11.5  84.1-13.6L 84.1-13.6L 90-12Q 88.80000000000001-9.1  86.6-6.75Q 84.4-4.4  81.5-2.65Q 78.6-0.9  75.1 0.05Q 71.6 1  67.80000000000001 1ZM 48.7-28.8L 87-28.8Q 86.7-33  85.05000000000001-36.45Q 83.4-39.9  80.85-42.4Q 78.30000000000001-44.9  74.95-46.3Q 71.6-47.7  67.80000000000001-47.7L 67.80000000000001-47.7Q 64-47.7  60.60000000000001-46.3Q 57.2-44.9  54.650000000000006-42.4Q 52.10000000000001-39.9  50.550000000000004-36.4Q 49-32.9  48.7-28.8L 48.7-28.8ZM 136.3 0L 129.5 0L 129.5-52.1L 136.3-52.1L 136.3 0ZM 136.3-63L 129.5-63L 129.5-73L 136.3-73L 136.3-63ZM 195.10000000000002-30.5L 195.10000000000002 0L 188.3 0L 188.3-29.1Q 188.3-38.4  185.55-42.6Q 182.8-46.8  177.10000000000002-46.8L 177.10000000000002-46.8Q 174.10000000000002-46.8  171.10000000000002-45.7Q 168.10000000000002-44.6  165.55-42.6Q 163-40.6  161-37.85Q 159-35.1  158.10000000000002-31.9L 158.10000000000002-31.9L 158.10000000000002 0L 151.3 0L 151.3-52.1L 157.5-52.1L 157.5-40.3Q 160.70000000000002-46  166.65-49.5Q 172.60000000000002-53  179.60000000000002-53L 179.60000000000002-53Q 183.9-53  186.9-51.4Q 189.9-49.8  191.70000000000002-46.9Q 193.5-44  194.3-39.8Q 195.10000000000002-35.6  195.10000000000002-30.5L 195.10000000000002-30.5ZM 235.40000000000003-9.5L 235.40000000000003-73L 242.20000000000002-73L 242.20000000000002-11.8Q 242.20000000000002-8.9  243.8-7.25Q 245.40000000000003-5.6  248.3-5.6L 248.3-5.6Q 249.40000000000003-5.6  250.90000000000003-5.9Q 252.40000000000003-6.2  253.70000000000002-6.7L 253.70000000000002-6.7L 254.90000000000003-1.2Q 253.00000000000003-0.4  250.25000000000003 0.1Q 247.50000000000003 0.6  245.50000000000003 0.6L 245.50000000000003 0.6Q 240.8 0.6  238.10000000000002-2.05Q 235.40000000000003-4.7  235.40000000000003-9.5L 235.40000000000003-9.5ZM 269.09999999999997 0L 262.29999999999995 0L 262.29999999999995-52.1L 269.09999999999997-52.1L 269.09999999999997 0ZM 269.09999999999997-63L 262.29999999999995-63L 262.29999999999995-73L 269.09999999999997-73L 269.09999999999997-63ZM 293.40000000000003 0L 286.6 0L 286.6-46.7L 279.40000000000003-46.7L 279.40000000000003-52.1L 286.6-52.1L 286.6-53.5Q 286.6-63.1  290.70000000000005-68.55Q 294.8-74  301.90000000000003-74L 301.90000000000003-74Q 305-74  307.90000000000003-73.1Q 310.8-72.2  312.90000000000003-70.7L 312.90000000000003-70.7L 310.8-65.8Q 309.40000000000003-66.9  307.35-67.5Q 305.3-68.1  303.20000000000005-68.1L 303.20000000000005-68.1Q 298.40000000000003-68.1  295.90000000000003-64.4Q 293.40000000000003-60.7  293.40000000000003-53.7L 293.40000000000003-53.7L 293.40000000000003-52.1L 307.8-52.1L 307.8-46.7L 293.40000000000003-46.7L 293.40000000000003 0ZM 337 1L 337 1Q 331.3 1  326.55-1.15Q 321.8-3.3  318.3-7.05Q 314.8-10.8  312.85-15.7Q 310.9-20.6  310.9-26.2L 310.9-26.2Q 310.9-31.7  312.85-36.55Q 314.8-41.4  318.25-45.05Q 321.7-48.7  326.5-50.85Q 331.3-53  336.9-53L 336.9-53Q 342.6-53  347.35-50.85Q 352.1-48.7  355.5-45Q 358.9-41.3  360.8-36.5Q 362.7-31.7  362.7-26.3L 362.7-26.3Q 362.7-25.5  362.7-24.7Q 362.7-23.9  362.6-23.6L 362.6-23.6L 318-23.6Q 318.3-19.4  319.95-15.85Q 321.6-12.3  324.2-9.7Q 326.8-7.1  330.15-5.65Q 333.5-4.2  337.3-4.2L 337.3-4.2Q 339.8-4.2  342.3-4.9Q 344.8-5.6  346.9-6.8Q 349-8  350.7-9.75Q 352.4-11.5  353.3-13.6L 353.3-13.6L 359.2-12Q 358-9.1  355.8-6.75Q 353.6-4.4  350.7-2.65Q 347.8-0.9  344.3 0.05Q 340.8 1  337 1ZM 317.9-28.8L 356.2-28.8Q 355.9-33  354.25-36.45Q 352.6-39.9  350.05-42.4Q 347.5-44.9  344.15-46.3Q 340.8-47.7  337-47.7L 337-47.7Q 333.2-47.7  329.8-46.3Q 326.4-44.9  323.85-42.4Q 321.3-39.9  319.75-36.4Q 318.2-32.9  317.9-28.8L 317.9-28.8Z"></path></svg>
