<?xml version="1.0" encoding="utf-8"?>
<svg viewBox="0 0 500 500" xmlns="http://www.w3.org/2000/svg">
  <g transform="matrix(1, 0, 0, 1, 0.000054, 0.000455)">
    <title>asdsd</title>
    <path d="M 113.09 160.095 L 113.085 160.089 L 113.092 160.093 L 113.09 160.094 L 113.09 160.095 Z M 242.986 85.104 C 242.987 85.109 242.989 85.115 242.99 85.12 L 242.99 85.104 L 242.993 85.095 L 372.883 160.098 C 365.679 170.725 337.412 185.828 329.581 185.096 L 242.991 135.095 L 242.991 135.089 C 242.989 135.094 242.986 135.098 242.984 135.103 L 242.983 135.103 L 199.685 110.105 L 199.685 110.102 L 242.986 85.104 Z M 199.685 160.1 L 199.685 160.097 L 199.688 160.098 L 199.685 160.1 Z M 156.389 185.095 C 143.655 186.954 126.259 179.31 113.092 160.093 L 156.391 135.096 L 156.391 185.094 L 156.389 185.095 Z M 199.69 210.092 L 199.692 160.095 L 242.988 185.095 L 286.285 210.096 L 242.985 235.092 L 242.988 185.097 C 238.903 182.44 198.478 208.678 199.69 210.092 Z M 199.688 210.095 C 206.141 200.888 241.183 179.916 242.987 185.099 C 246.803 194.487 250.174 216.643 242.984 235.096 L 199.688 210.095 Z" style="fill: rgb(3, 92, 100); paint-order: stroke; stroke: rgb(3, 92, 100); vector-effect: non-scaling-stroke; stroke-width: 0px;"/>
    <path d="M 113.093 160.089 L 113.093 160.1 L 113.085 160.095 L 113.093 160.089 Z M 156.391 185.091 L 156.386 285.084 L 156.384 285.085 C 156.387 285.088 156.389 285.091 156.391 285.094 L 156.391 335.096 L 113.09 310.092 C 113.094 310.085 113.098 310.078 113.101 310.072 L 113.085 310.081 L 113.093 160.1 L 156.391 185.091 Z M 242.981 335.095 C 246.601 340.101 248.439 374.919 242.985 385.086 L 242.979 385.095 L 199.685 360.095 L 199.685 360.085 L 242.975 335.091 L 242.981 335.095 Z M 242.989 285.094 L 199.69 310.09 L 199.692 260.096 L 199.688 260.094 L 242.987 235.098 L 242.984 285.091 L 242.989 285.094 Z M 242.984 235.094 C 240.358 244.223 210.659 258.869 199.685 260.09 L 199.688 210.093 L 242.984 235.094 Z" style="fill: rgb(79, 190, 159); paint-order: stroke; stroke: rgb(79, 190, 159); vector-effect: non-scaling-stroke; stroke-width: 0px;"/>
    <path d="M 372.883 160.089 L 372.887 160.095 L 372.879 310.08 C 372.881 310.083 372.883 310.086 372.885 310.089 L 372.883 310.096 L 242.986 385.086 L 242.988 335.087 L 329.583 285.095 C 329.587 285.095 329.592 285.094 329.596 285.094 L 329.581 285.085 L 329.586 185.096 L 372.883 160.089 Z M 242.988 235.092 L 286.287 210.096 L 286.284 260.093 L 242.988 235.092 Z M 286.285 260.096 L 242.985 285.091 L 242.988 235.094 C 258.864 235.758 277.833 248.766 286.285 260.096 Z M 372.885 310.089 L 372.887 310.081 L 372.887 310.092 C 372.886 310.091 372.886 310.09 372.885 310.089 Z" style="fill: rgb(41, 141, 130); paint-order: stroke; stroke: rgb(41, 141, 130); vector-effect: non-scaling-stroke; stroke-width: 0px;"/>
  </g>
</svg>