<svg xmlns="http://www.w3.org/2000/svg" width="512" height="157" style="overflow: visible;" viewBox="0 0 512 157" data-svgdocument="" id="_dS9AwksbZoQVo1p2Lnhce" class="fl-svgdocument" x="0" y="0" overflow="hidden" data-bbox="78.75419021515 142.7685522221954 381.90117701648836 146.64271020604718"><defs id="_ahyBLYSZHW0GMvkrxuP2p" transform="matrix(1.230769157409668, 0, 0, 1.230769157409668, -59.076881408691406, -30.782167434692383)" data-uid="o_f0i404360_5"><linearGradient x1="50.02%" y1="0.06%" x2="49.98%" y2="99.94%" id="g_1513025828_1" gradientUnits="objectBoundingBox" data-uid="o_f0i404360_16"><stop offset="52%" stop-color="rgb(25, 200, 178)" stop-opacity="1.00" data-uid="o_f0i404360_17"></stop><stop offset="100%" stop-color="rgb(19, 153, 131)" stop-opacity="1.00" data-uid="o_f0i404360_18"></stop></linearGradient></defs><path text="Drive" text-anchor="middle" font-size="100" letter-spacing="0" side="left" offset="0.5" dx="0" dy="0" space="preserve" href="" font-family="DM Sans" font-scale="contain" transform="matrix(2.1422594142259412, 0, 0, 2.1422594142259412, 253.3221757322176, 154.2426778242678)" x="0" y="0" fill="#505050" data-fl-textpath="" id="_jr_ncPTcN48qsU_fEMMIW" font-weight="700" font-style="normal" data-uid="o_f0i404360_10" d="M-94.35000000000004 0L-118.25000000000004 0L-118.25000000000004-70L-94.35000000000004-70Q-82.05000000000004-70 -74.10000000000004-65.65Q-66.15000000000003-61.3 -62.30000000000004-53.45Q-58.450000000000045-45.6 -58.450000000000045-35L-58.450000000000045-35Q-58.450000000000045-24.4 -62.30000000000004-16.55Q-66.15000000000003-8.7 -74.10000000000004-4.35Q-82.05000000000004 0 -94.35000000000004 0L-94.35000000000004 0ZM-105.45000000000005-59.1L-105.45000000000005-11L-94.95000000000005-11Q-86.15000000000003-11 -81.05000000000004-13.85Q-75.95000000000005-16.7 -73.75000000000004-22.05Q-71.55000000000004-27.4 -71.55000000000004-35L-71.55000000000004-35Q-71.55000000000004-42.5 -73.75000000000004-47.9Q-75.95000000000005-53.3 -81.05000000000004-56.2Q-86.15000000000003-59.1 -94.95000000000005-59.1L-94.95000000000005-59.1L-105.45000000000005-59.1ZM-34.65000000000002 0L-47.45000000000002 0L-47.45000000000002-49.6L-36.05000000000002-49.6L-34.850000000000016-40.3Q-32.15000000000002-45.1 -27.500000000000018-47.95Q-22.850000000000016-50.8 -16.55000000000002-50.8L-16.55000000000002-50.8L-16.55000000000002-37.3L-20.15000000000002-37.3Q-24.350000000000016-37.3 -27.650000000000016-36Q-30.950000000000017-34.7 -32.80000000000002-31.5Q-34.65000000000002-28.3 -34.65000000000002-22.6L-34.65000000000002-22.6L-34.65000000000002 0ZM-0.9500000000000153-57.3L-0.9500000000000153-57.3Q-4.450000000000015-57.3 -6.700000000000015-59.4Q-8.950000000000015-61.5 -8.950000000000015-64.7L-8.950000000000015-64.7Q-8.950000000000015-67.9 -6.700000000000015-69.95Q-4.450000000000015-72 -0.9500000000000153-72L-0.9500000000000153-72Q 2.549999999999983-72  4.799999999999983-69.95Q 7.049999999999983-67.9  7.049999999999983-64.7L 7.049999999999983-64.7Q 7.049999999999983-61.5  4.799999999999983-59.4Q 2.549999999999983-57.3 -0.9500000000000153-57.3ZM 5.449999999999985 0L-7.350000000000016 0L-7.350000000000016-49.6L 5.449999999999985-49.6L 5.449999999999985 0ZM 47.749999999999986 0L 32.249999999999986 0L 14.049999999999986-49.6L 27.44999999999999-49.6L 40.04999999999998-12.1L 52.649999999999984-49.6L 66.04999999999998-49.6L 47.749999999999986 0ZM 95.85 1.2L 95.85 1.2Q 88.35 1.2  82.55-2Q 76.75-5.2  73.45-11Q 70.15-16.8  70.15-24.4L 70.15-24.4Q 70.15-32.1  73.4-38.1Q 76.65-44.1  82.4-47.45Q 88.15-50.8  95.95-50.8L 95.95-50.8Q 103.25-50.8  108.85-47.6Q 114.45-44.4  117.6-38.85Q 120.75-33.3  120.75-26.5L 120.75-26.5Q 120.75-25.4  120.7-24.2Q 120.65-23  120.55-21.7L 120.55-21.7L 82.85-21.7Q 83.25-15.9  86.9-12.6Q 90.55-9.3  95.75-9.3L 95.75-9.3Q 99.65-9.3  102.3-11.05Q 104.95-12.8  106.25-15.6L 106.25-15.6L 119.25-15.6Q 117.85-10.9  114.6-7.05Q 111.35-3.2  106.6-1Q 101.85 1.2  95.85 1.2ZM 95.95-40.4L 95.95-40.4Q 91.25-40.4  87.65-37.75Q 84.05-35.1  83.05-29.7L 83.05-29.7L 107.75-29.7Q 107.45-34.6  104.15-37.5Q 100.85-40.4  95.95-40.4Z"></path></svg>
